<svg width="261" height="292" viewBox="0 0 261 292" fill="none" xmlns="http://www.w3.org/2000/svg">
<path d="M126.37 38.44L119.586 161.384L115.456 165.832L111.031 169.326L105.131 171.868L99.2313 172.821L93.6265 172.503L89.2017 171.55L84.7768 169.326L81.237 166.785L78.5821 163.926L77.4021 160.114L76.5172 156.937L75.3372 156.301L71.2074 154.713L67.9625 152.489L65.3076 148.995L63.5377 145.182L62.6527 142.005L62.3577 138.829H61.4727L57.0479 137.876L52.9181 135.652L50.2632 132.793L47.6083 128.663L45.5434 123.58L45.2484 118.814L45.5434 113.731L47.0183 107.695L48.7882 104.519L47.9033 103.566L45.2484 99.4356L43.7734 94.6703L42.8885 87.9989V83.5513L43.7734 78.4683L44.6584 75.2915L46.4283 70.8439L49.9682 66.714L52.3281 65.7609L52.6231 64.4902L52.9181 59.7249L53.803 54.9596L55.278 50.1943L57.6379 44.7937L61.4727 39.393L64.4226 36.5339L69.1425 33.6747L75.3372 32.0863H80.647L83.8919 26.6856L86.8418 22.8734L90.9716 19.6965L95.3964 17.155L101.296 15.8843H108.081L113.686 18.1081L118.701 22.238L123.125 28.5917L124.895 33.9924L126.37 38.44Z" fill="url(#paint0_linear_750_213)"/>
<path d="M137.285 39.0753L144.07 162.02L148.199 166.467L152.624 169.962L158.524 172.503L164.424 173.456L170.029 173.139L174.453 172.186L178.878 169.962L182.418 167.42L185.073 164.561L186.253 160.749L187.138 157.572L188.318 156.937L192.448 155.348L195.693 153.124L198.347 149.63L200.117 145.818L201.002 142.641L201.297 139.464H202.182L206.607 138.511L210.737 136.287L213.392 133.428L216.047 129.298L218.112 124.215L218.407 119.45L218.112 114.367L216.637 108.331L214.867 105.154L215.752 104.201L218.407 100.071L219.882 95.3057L220.767 88.6343V84.1867L219.882 79.1037L218.997 75.9269L217.227 71.4793L213.687 67.3493L211.327 66.3963L211.032 65.1255L210.737 60.3603L209.852 55.595L208.377 50.8297L206.017 45.429L202.182 40.0284L199.232 37.1692L194.513 34.31L188.318 32.7216H183.008L179.763 27.321L176.813 23.5087L172.683 20.3319L168.259 17.7904L162.359 16.5197H155.574L149.969 18.7435L144.954 22.8734L140.53 29.2271L138.76 34.6277L137.285 39.0753Z" fill="url(#paint1_linear_750_213)"/>
<path d="M167.964 62.5841C155.545 73.4451 149.659 74.401 140.53 69.5732" stroke="black" stroke-width="2"/>
<path d="M177.993 70.5262C177.993 70.5262 161.141 64.2187 166.489 49.559" stroke="black" stroke-width="2"/>
<path d="M165.309 102.295C167.53 94.5141 166.526 91.281 162.949 86.4105" stroke="black" stroke-width="2"/>
<path d="M142.3 114.049C157.971 101.298 164.959 99.1525 172.978 107.695" stroke="black" stroke-width="2"/>
<path d="M186.253 157.89C197.847 153.834 199.887 149.305 201.297 140.099" stroke="black" stroke-width="2"/>
<path d="M144.07 162.02C162.359 187.435 204.247 167.103 179.173 140.417" stroke="black" stroke-width="2"/>
<path d="M175.928 60.3603C182.801 57.5643 184.254 54.9973 184.778 49.559" stroke="black" stroke-width="2"/>
<path d="M188.613 104.836C206.902 102.612 204.837 87.3635 188.613 83.869" stroke="black" stroke-width="2"/>
<path d="M201.887 95.6234C226.666 101.977 223.421 145.5 193.923 138.829" stroke="black" stroke-width="2"/>
<path d="M210.737 66.0786C222.563 69.262 223.422 96.8941 215.162 104.836" stroke="black" stroke-width="2"/>
<path d="M175.338 34.6279C211.917 22.238 215.162 73.3854 207.787 77.1977" stroke="black" stroke-width="2"/>
<path d="M137.58 38.4741C144.595 7.51069 173.267 12.4195 182.418 31.6772" stroke="black" stroke-width="2"/>
<path d="M144.07 162.02L137.285 38.1223M167.964 128.816C157.639 128.816 152.034 142.651 164.719 153.411V158.945" stroke="black" stroke-width="2"/>
<path d="M138.465 50.1943C147.808 48.9498 150.521 46.0214 152.329 38.1223" stroke="black" stroke-width="2"/>
<path d="M95.537 62.2323C107.956 73.0933 113.842 74.0492 122.971 69.2214" stroke="black" stroke-width="2"/>
<path d="M85.5074 70.1744C85.5074 70.1744 102.36 63.8669 97.012 49.2072" stroke="black" stroke-width="2"/>
<path d="M98.192 101.943C95.9704 94.1623 96.9751 90.9292 100.552 86.0587" stroke="black" stroke-width="2"/>
<path d="M121.201 113.697C105.53 100.946 98.5418 98.8007 90.5222 107.344" stroke="black" stroke-width="2"/>
<path d="M77.2477 157.538C65.6539 153.482 63.614 148.953 62.2033 139.748" stroke="black" stroke-width="2"/>
<path d="M119.431 161.668C101.142 187.083 59.2535 166.751 84.3275 140.065" stroke="black" stroke-width="2"/>
<path d="M87.5723 60.0085C80.6991 57.2126 79.247 54.6455 78.7226 49.2072" stroke="black" stroke-width="2"/>
<path d="M74.8878 104.484C56.5985 102.261 58.6634 87.0118 74.8878 83.5172" stroke="black" stroke-width="2"/>
<path d="M61.6133 95.2716C36.8343 101.625 40.0791 145.148 69.578 138.477" stroke="black" stroke-width="2"/>
<path d="M52.7637 65.7268C40.938 68.9102 40.0792 96.5423 48.3388 104.484" stroke="black" stroke-width="2"/>
<path d="M88.1624 34.2761C51.5838 21.8862 48.3389 73.0336 55.7136 76.8459" stroke="black" stroke-width="2"/>
<path d="M125.921 38.1223C118.905 7.15892 90.2333 12.0677 81.0826 31.3254" stroke="black" stroke-width="2"/>
<path d="M119.29 161.384L126.075 38.1223M95.3964 128.351C105.721 128.351 111.326 142.115 98.6413 152.82V158.326" stroke="black" stroke-width="2"/>
<path d="M125.036 49.8425C115.693 48.598 112.98 45.6697 111.171 37.7705" stroke="black" stroke-width="2"/>
<path d="M104.171 246H156.361L158.12 253.34L159 257.489L158.12 268.34L156.361 276.319L150.497 283.66L140.235 289.404L128.214 291L118.538 289.404L110.915 284.936L104.171 277.915C101.256 265.684 101.297 258.693 104.171 246Z" fill="url(#paint2_linear_750_213)"/>
<path d="M138.524 195C141.841 179.554 146.041 179.719 154.149 182.342C157.868 192.977 149.258 194.169 131 195" stroke="black" stroke-width="2"/>
<path d="M122.476 195C119.159 179.554 114.959 179.719 106.851 182.342C103.132 192.977 111.742 194.169 130 195" stroke="black" stroke-width="2"/>
<path d="M144 228C138.618 216.225 137.177 208.883 138.414 194" stroke="black" stroke-width="2"/>
<path d="M116 228C122.279 216.225 123.96 208.883 122.517 194" stroke="black" stroke-width="2"/>
<rect x="103" y="229" width="56" height="7" rx="3.5" fill="url(#paint3_radial_750_213)" stroke="#090909" stroke-width="2"/>
<rect x="101" y="238" width="61" height="7" rx="3.5" fill="url(#paint4_radial_750_213)" stroke="#090909" stroke-width="2"/>
<path d="M130 195C130.464 195 130.681 195 131 195" stroke="black"/>
<path d="M130 195C130.606 193.625 131.054 193.709 132 195" stroke="black"/>
<path d="M157.215 246C159.296 257.633 159.877 264.155 157.215 275.789C150.347 285.456 145.372 289.675 130.689 291C118.678 290.111 112.65 287.877 104.164 278.324C101.015 266.252 101.555 259.08 104.164 246" stroke="black" stroke-width="2"/>
<path d="M232 85H243.915L241.83 78L260 81.1818" stroke="black" stroke-width="2"/>
<path d="M203.362 158.823L214.056 164.194L214.928 156.92L229.989 167.989" stroke="black" stroke-width="2"/>
<path d="M199.615 22.1315L210.309 16.7611L205.695 11.3667L223.25 6.05605" stroke="black" stroke-width="2"/>
<path d="M29 86H17.0851L19.1702 79L1 82.1818" stroke="black" stroke-width="2"/>
<path d="M55.4226 158.823L44.7286 164.194L43.8574 156.92L28.7957 167.989" stroke="black" stroke-width="2"/>
<path d="M59.7598 18.9547L49.0657 13.5843L53.6799 8.18984L36.1248 2.8792" stroke="black" stroke-width="2"/>
<defs>
<linearGradient id="paint0_linear_750_213" x1="84.6294" y1="15.8843" x2="84.6294" y2="172.821" gradientUnits="userSpaceOnUse">
<stop stop-color="#FFB517"/>
<stop offset="1" stop-color="#EE48D8"/>
</linearGradient>
<linearGradient id="paint1_linear_750_213" x1="179.026" y1="16.5197" x2="179.026" y2="173.456" gradientUnits="userSpaceOnUse">
<stop stop-color="#FFB517"/>
<stop offset="1" stop-color="#EE48D8"/>
</linearGradient>
<linearGradient id="paint2_linear_750_213" x1="130.5" y1="246" x2="130.5" y2="291" gradientUnits="userSpaceOnUse">
<stop stop-color="#EE49D6"/>
<stop offset="1" stop-color="#5D4616"/>
</linearGradient>
<radialGradient id="paint3_radial_750_213" cx="0" cy="0" r="1" gradientUnits="userSpaceOnUse" gradientTransform="translate(131 232.5) rotate(-0.0850408) scale(29 4.5)">
<stop stop-color="#D3D3D3"/>
<stop offset="1" stop-color="#404040"/>
</radialGradient>
<radialGradient id="paint4_radial_750_213" cx="0" cy="0" r="1" gradientUnits="userSpaceOnUse" gradientTransform="translate(131.5 241.5) rotate(-0.0782915) scale(31.5 4.5)">
<stop stop-color="#D3D3D3"/>
<stop offset="1" stop-color="#404040"/>
</radialGradient>
</defs>
</svg>
